<?xml version="1.0" encoding="UTF-8"?>
<svg id="icon" xmlns="http://www.w3.org/2000/svg" viewBox="0 0 94.99 64.8">
  <path d="M24.32,44.88c.45,0,.81-.36.81-.81s-.36-.81-.81-.81-.81.36-.81.81.36.81.81.81Z"/>
  <path d="M9.31,61.34c1.69,0,3.06-1.37,3.06-3.06s-1.37-3.06-3.06-3.06-3.06,1.37-3.06,3.06,1.37,3.06,3.06,3.06ZM9.31,56.47c1,0,1.81.81,1.81,1.81s-.81,1.81-1.81,1.81-1.81-.81-1.81-1.81.81-1.81,1.81-1.81Z"/>
  <path d="M80.88,15.17c1.34,0,2.44-1.09,2.44-2.44s-1.09-2.44-2.44-2.44-2.44,1.09-2.44,2.44,1.09,2.44,2.44,2.44ZM80.88,11.51c.68,0,1.23.55,1.23,1.23s-.55,1.23-1.23,1.23-1.23-.55-1.23-1.23.55-1.23,1.23-1.23Z"/>
  <path d="M93.87,62.55h-1.9l-3.97-44.3,4.37-4.02c.22-.2.35-.48.36-.78s-.09-.59-.3-.81l-1.24-1.35,2.38-2.2c.22-.2.35-.48.36-.78.01-.3-.09-.59-.3-.81l-6.58-7.15c-.2-.22-.48-.35-.78-.36-.3,0-.59.09-.81.3l-2.38,2.2-1.24-1.35c-.2-.22-.48-.35-.78-.36-.3,0-.59.1-.81.3l-11.81,10.88c-.46.42-.49,1.13-.07,1.59l1.24,1.35-9.35,8.58c-.22.2-.35.48-.36.78-.01.3.09.59.3.81l1.65,1.79-2.58,2.58-1.05-1.14c-.22-.24-.53-.36-.86-.36-.33,0-.63.16-.84.41l-3.52,4.29-2.64-4.34c-.18-.36-.39-.68-.62-.95-.28-.36-.62-.67-.98-.9-.7-.49-1.33-.77-2.99-.86.32-1.22.53-2.57.61-4.05v-4.72s0-.04,0-.06c-.34-6.47-3.23-9.11-9.97-9.11s-9.63,2.64-9.98,9.17v4.78c.08,1.43.27,2.74.58,3.92-2.27.25-3.77,1.14-4.55,2.73l-11.41,18.06s-.04.11-.06.16c-4.87,2.79-7.83,6.96-7.86,11.49,0,.11-.02.21-.02.32,0,1.67.71,3.18,1.84,4.27H1.12c-.62,0-1.12.5-1.12,1.12s.5,1.12,1.12,1.12h92.74c.62,0,1.12-.5,1.12-1.12s-.5-1.12-1.12-1.12ZM5.13,58.33c0-.05,0-.1,0-.15.06-2.16,1.9-3.91,4.17-3.91s4.18,1.8,4.18,4.01-1.88,4.01-4.18,4.01-4.15-1.77-4.18-3.95c0,0,0,0,0,0ZM25.32,57.91c1.24-.31,2.64-.53,4.17-.53,1.65,0,3.59.48,5.72,1.4l2.13,1.03c1.58.84,2.97,1.93,4,2.75h-16.11l.08-4.64s0,0,0,0ZM23.24,62.55h-6.94c1.12-.55,2.21-1.22,3.25-2.01.57-.44,1.29-.87,2.13-1.29.47-.23,1.02-.48,1.63-.71l-.07,4.02ZM52.29,55.77c-.96-.24-2.08-.89-3.64-2.11-.13-.1-.29-.16-.45-.18l-.82-1.93,4.25,1.79c.25.11.55.02.7-.21.15-.23.12-.54-.07-.73l-3.28-3.23,4.34.03,2.72,4.5,3.2,5.21c.61.96,1.56,1.62,2.67,1.87.31.07.62.1.94.1.8,0,1.58-.23,2.27-.66.96-.61,1.62-1.56,1.87-2.67.25-1.11.05-2.25-.55-3.19l-6.26-10.16-2.59-4.31,5.99-3.85c.28-.18.46-.47.51-.8.04-.33-.06-.66-.29-.91l-1.18-1.28,2.65-2.5,1.54,1.68c.22.24.52.36.83.36.27,0,.54-.1.76-.3l4.52-4.14-3.04,34.42h-16.82v-5.81c0-.46-.31-.86-.76-.97ZM45.78,50.7l1.18,2.78-2.12-2.15c-.16-.17-.41-.22-.63-.13-.22.09-.36.3-.35.54l.02,3.02-1.14-2.8c-.09-.22-.3-.36-.53-.36s-.44.14-.53.36l-1.14,2.8.02-3.02c0-.23-.14-.45-.35-.54-.22-.09-.47-.04-.63.13l-2.12,2.15,1.18-2.78c.09-.22.04-.47-.12-.63-.17-.17-.42-.21-.63-.12l-2.78,1.18,2.15-2.12c.17-.16.22-.41.13-.63-.09-.21-.3-.35-.53-.35h0l-2.83.02s0-.05.01-.08l2.59-1.05c.22-.09.36-.3.36-.53s-.14-.44-.36-.53l-2.8-1.14,3.02.02c.27,0,.45-.14.54-.35.09-.22.04-.47-.13-.63l-2.15-2.12,2.78,1.18c.21.09.46.04.63-.12.17-.17.21-.42.12-.63l-1.18-2.78,2.12,2.15c.16.17.41.22.63.13.22-.09.36-.3.35-.54l-.02-3.02,1.14,2.8c.18.43.89.43,1.07,0l1.14-2.8-.02,3.02c0,.23.14.45.35.54.22.09.47.04.63-.13l2.12-2.15-1.18,2.78c-.09.22-.04.46.12.63.17.16.42.21.63.12l1.42-.6s0,0,.01,0l1.35-.57-2.15,2.12c-.17.16-.22.41-.13.63.09.21.3.35.53.35h0l3.01-.02h0s-2.79,1.14-2.79,1.14c-.22.09-.36.3-.36.53s.14.44.36.53l2.8,1.14-3.02-.02h0c-.23,0-.44.14-.53.35-.09.22-.04.47.13.63l2.15,2.12-2.78-1.18c-.22-.09-.46-.04-.63.12-.17.17-.21.42-.12.63ZM30.25,48.75c.05.27.29.46.56.46h0l4.61-.03-3.03,2.99c-3.54-.65-7.54-.56-10.99.79-2.25.88-3.87.21-4.32-.91-.4-1.02.19-2.53,2.45-3.44,3.16-1.27,6.92-1.45,11.17-.56l-.11.05c-.26.1-.4.37-.35.65ZM36.3,53.25c-.59-.22-1.2-.43-1.84-.61l2.56-1.08-.71,1.69ZM39.39,54.68c-.29-.12-.61-.27-.95-.46-.02-.01-.04-.02-.06-.03l1.03-1.04v1.53ZM55.68,41.1l2.56,4.27,6.28,10.19c.29.45.38.99.26,1.51-.12.53-.43.97-.88,1.26-.93.59-2.18.32-2.76-.6l-7.84-12.88.5-.2c.26-.1.4-.37.35-.65s-.32-.44-.57-.46h-1.08s-.17-.28-.17-.28l3.34-2.15ZM52.27,47.48l-2.73-1.11,1.65-.67,1.08,1.78ZM49,43.56h-.01s0,0,0,0c0,0,0,0,0,0ZM76.11,17.3c1.21,1.26,2.91,2.06,4.77,2.06s3.55-.79,4.77-2.07l4.05,45.27h-17.58l3.99-45.25ZM76.51,12.74c0-2.41,1.96-4.37,4.37-4.37s4.37,1.96,4.37,4.37c0,.31-.03.62-.1.93-.43,1.99-2.23,3.44-4.27,3.44-2.26,0-4.17-1.76-4.35-4.01,0-.12-.02-.24-.02-.35ZM87.74,15.43l-.25-2.8s0,0,0,0c-.02-.98-.25-1.9-.64-2.73l1.93,2.09s0,0,0,0c0,0,0,0,0,0l1.24,1.35-2.28,2.09ZM86.17,2.71l5.06,5.49-1.56,1.43-5.06-5.49,1.56-1.43ZM80.95,3.5l1.24,1.35s0,0,0,0,0,0,0,0l2,2.17c-.98-.57-2.11-.9-3.31-.9-3.62,0-6.56,2.91-6.61,6.52,0,0,0,0,0,0l-.32,3.63-3.15-3.42,10.16-9.35ZM71.15,16.55l2.53,2.75-.49,5.52-5.51,5.04-5.06-5.49,8.52-7.82ZM63.38,28.51l.67.72-2.65,2.5-.6-.65,2.58-2.58ZM57.45,30.78l3.77,4.09-9.83,6.32.87-.86c.2-.19.23-.5.07-.73-.15-.23-.45-.32-.7-.21l-1.92.81,7.74-9.43ZM36.41,9.9c5.56,0,7.44,1.69,7.72,6.95v4.63c-.23,4.39-1.76,9.61-7.72,9.61s-7.49-5.23-7.73-9.55v-4.66c.28-5.28,2.16-6.98,7.73-6.98ZM24.4,29.4s.05-.08.07-.12c.32-.68,1.01-1.44,3.3-1.56,1.61,3.63,4.59,5.63,8.64,5.63s6.97-1.96,8.59-5.54c1.82.04,2.11.23,2.51.51.18.12.34.26.5.46.14.17.27.36.37.57.01.03.03.06.05.09l3.08,5.05-2.62,3.2.31-.74c.11-.25.02-.55-.21-.7-.23-.15-.54-.12-.73.07l-3.23,3.28.03-4.61c0-.28-.19-.51-.46-.57-.27-.05-.54.09-.65.35l-1.73,4.27-1.73-4.27c-.1-.26-.38-.4-.65-.35-.27.05-.46.29-.46.57l.03,4.61-3.23-3.28c-.2-.2-.5-.23-.73-.07-.23.15-.32.45-.21.7l1.79,4.24-4.24-1.79c-.25-.11-.55-.02-.7.21-.15.23-.12.54.07.73l3.28,3.24-2.76-.02c-.43-.09-1.06-.16-1.63-.23-.27-.03-.52-.06-.7-.08-2.35-.33-2.7-.43-2.85-.8-.54-1.3-1.24-2.02-2.24-2.28l.08-4.72c0-.55-.43-1.01-.98-1.02-.52-.01-1.01.43-1.02.98l-.09,4.8c-1.03.34-1.83,1.19-2.17,2.36-.08.14-.44.44-1.95.98-.45.09-.9.18-1.34.29l-.25.06c-.99.24-1.93.54-2.83.87l9.7-15.36ZM18.09,45.81l.16-.04c.43-.1.87-.2,1.32-.28.05,0,.1-.02.15-.04,1.4-.49,2.92-1.12,3.26-2.29.15-.51.5-1.13,1.31-1.13.55,0,.89.05,1.35,1.16.62,1.48,1.81,1.65,4.42,2.02.2.03.47.06.75.09.52.06,1.16.13,1.48.2.15.03.3.03.44,0l2.14.87-1.49.6c-.64-.22-1.26-.4-1.86-.54-4.78-1.08-9.03-.89-12.63.55-3.37,1.35-4.14,3.91-3.42,5.71.76,1.92,3.27,3.19,6.58,1.89,4.37-1.71,9.73-1.21,13.58.27l-.4.95c-.11.25-.02.55.21.7.23.15.53.12.73-.07l.92-.94c.17.08.34.17.5.26.66.37,1.26.61,1.79.77v1.24c-.01.28.18.51.45.57.04,0,.08.01.11.01.23,0,.44-.14.53-.36l1.73-4.27,1.73,4.27c.1.26.38.4.65.35.05-.01.1-.03.15-.06v2.55c0,.35.28.62.62.62h3.52c.35,0,.62-.28.62-.62v-3.07c0-.35-.28-.62-.62-.62h-3.52c-.12,0-.22.04-.31.1l-.03-4.06,3.23,3.28c.19.2.5.23.73.07.03-.02.06-.05.09-.08.72.47,1.37.82,1.98,1.05v4.41c-3.27.06-6.59.08-7.25.02-.2-.12-.7-.51-1.11-.84-1.1-.88-2.61-2.08-4.44-3.05l-2.2-1.06c-2.42-1.05-4.63-1.58-6.56-1.58-3.73,0-6.79,1.13-8.71,2.08-.96.48-1.79.98-2.47,1.5-1.13.87-2.33,1.57-3.55,2.11.45-.83.71-1.78.71-2.79,0-3.31-2.77-6.01-6.18-6.01-.85,0-1.66.17-2.4.47,2.16-3.11,6.14-5.68,11.18-6.93ZM45.98,60.19v-1.82h2.27v1.82h-2.27Z"/>
  <path d="M33.05,24.47h6.51c1.38,0,2.5-1.12,2.5-2.5v-6.61c0-.41-.34-.75-.75-.75s-.75.34-.75.75v2.1c-.31-.14-.65-.21-1-.21h-6.51c-.36,0-.7.08-1,.21v-2.1c0-.41-.34-.75-.75-.75s-.75.34-.75.75v6.61c0,1.38,1.12,2.5,2.5,2.5ZM33.05,18.74h6.51c.55,0,1,.45,1,1v2.22c0,.55-.45,1-1,1h-6.51c-.55,0-1-.45-1-1v-2.22c0-.55.45-1,1-1Z"/>
</svg>